<svg xmlns="http://www.w3.org/2000/svg" width="49.457" height="25.071" viewBox="0 0 49.457 25.071">
  <g id="note" transform="translate(0 -85.26)">
    <path id="Path_51414" data-name="Path 51414" d="M90.015,110.311l.055-.013.047-.012.053-.018.046-.017.048-.022.047-.023.045-.026.046-.028c.016-.011.031-.022.046-.034l.039-.029c.023-.019.045-.039.067-.06l.012-.011.011-.013c.021-.021.041-.043.059-.066s.021-.027.031-.041.022-.028.032-.043.02-.032.03-.049.017-.027.024-.041.016-.033.024-.05.014-.03.021-.045.012-.033.018-.05.012-.032.017-.049.009-.034.013-.051.009-.033.012-.05.006-.04.009-.061,0-.028.006-.043a1.069,1.069,0,0,0,.005-.107V86.333a1.072,1.072,0,0,0-1.073-1.073H55.992l-.061,0-.048.005-.055.008-.051.01-.051.013-.049.015-.05.018-.046.019-.05.024-.042.023-.049.03-.039.026-.045.034-.04.033-.038.035-.041.042-.02.021-.011.013c-.013.016-.026.032-.039.048l-.027.036c-.011.016-.021.032-.032.049s-.017.027-.025.041-.017.032-.025.049-.015.03-.022.045-.013.033-.019.049-.012.032-.018.048-.01.033-.014.05-.009.034-.013.051-.006.033-.009.049-.006.037-.009.056,0,.031,0,.047,0,.04,0,.06,0,.012,0,.017v6.614a1.073,1.073,0,0,0,2.145,0V88.714l9.536,8.443a1.084,1.084,0,0,0-.142.118l-9.394,9.394V99.621a1.073,1.073,0,0,0-2.145,0v1.311H49.406a1.073,1.073,0,0,0,0,2.145h5.542v6.182a1.072,1.072,0,0,0,1.073,1.073H89.805c.035,0,.071,0,.106-.005l.048-.007Zm-1.282-3.641-9.394-9.394-.019-.017,7.062-5.992a1.073,1.073,0,1,0-1.388-1.636L72.927,99.87,58.849,87.405H88.733ZM68,98.793a1.069,1.069,0,0,0,.187-.252l4.012,3.552a1.073,1.073,0,0,0,1.405.015l4.088-3.469a1.079,1.079,0,0,0,.127.154l9.394,9.394H58.609Z" transform="translate(-41.421)" fill="#f72f2f"/>
    <path id="Path_51415" data-name="Path 51415" d="M1.073,157.821H19.187a1.073,1.073,0,1,0,0-2.145H1.073a1.073,1.073,0,1,0,0,2.145Z" transform="translate(0 -60.346)" fill="#f72f2f"/>
    <path id="Path_51416" data-name="Path 51416" d="M14.2,116.49h8.134a1.073,1.073,0,1,0,0-2.145H14.2a1.073,1.073,0,1,0,0,2.145Z" transform="translate(-11.248 -24.926)" fill="#f72f2f"/>
    <path id="Path_51417" data-name="Path 51417" d="M8.938,226.51H1.073a1.073,1.073,0,1,0,0,2.145H8.938a1.073,1.073,0,1,0,0-2.145Z" transform="translate(0 -121.05)" fill="#f72f2f"/>
  </g>
</svg>
