<svg xmlns="http://www.w3.org/2000/svg" width="47.023" height="47.002" viewBox="0 0 47.023 47.002">
  <g id="Group_37487" data-name="Group 37487" transform="translate(-4.48 -4.497)">
    <path id="Path_51001" data-name="Path 51001" d="M56.519,5.011a1.022,1.022,0,0,0,.076,2.043,16.378,16.378,0,0,1,12.145,4.91A16.437,16.437,0,0,1,73.651,24.11a1.022,1.022,0,0,0,.983,1.06h.039a1.022,1.022,0,0,0,1.021-.984A18.818,18.818,0,0,0,56.519,5.011Z" transform="translate(-24.705 0)" fill="#f72f2f" stroke="#f72f2f" stroke-width="1"/>
    <path id="Path_51002" data-name="Path 51002" d="M63.919,23.68a10.669,10.669,0,0,1,3.065,6.91A1.022,1.022,0,0,0,68,31.54l.074,0a1.023,1.023,0,0,0,.948-1.092,12.553,12.553,0,0,0-11.87-11.87,1.022,1.022,0,0,0-.144,2.04A10.669,10.669,0,0,1,63.919,23.68Z" transform="translate(-24.962 -6.636)" fill="#f72f2f" stroke="#f72f2f" stroke-width="1"/>
    <path id="Path_51003" data-name="Path 51003" d="M43.5,35.062a5.948,5.948,0,0,0-8.411,0l-1.828,1.827a2.487,2.487,0,0,1-3.19.254,39.341,39.341,0,0,1-5.251-4.41h0a39.354,39.354,0,0,1-4.409-5.25,2.486,2.486,0,0,1,.254-3.19l1.827-1.828a5.953,5.953,0,0,0,0-8.41l-4.13-4.13a5.947,5.947,0,0,0-8.41,0L8.072,11.807a10.3,10.3,0,0,0-2.963,8.751A35.951,35.951,0,0,0,9.776,33.377a41.277,41.277,0,0,0,14.4,14.4A35.952,35.952,0,0,0,37,52.447a9.7,9.7,0,0,0,1.447.108,10.386,10.386,0,0,0,7.3-3.072L47.632,47.6a5.948,5.948,0,0,0,0-8.411Zm2.684,11.095L44.3,48.039a8.239,8.239,0,0,1-7,2.387A33.9,33.9,0,0,1,25.218,46.02,39.224,39.224,0,0,1,11.536,32.337,33.9,33.9,0,0,1,7.13,20.254a8.245,8.245,0,0,1,2.387-7L11.4,11.371a3.907,3.907,0,0,1,5.519,0l4.13,4.13a3.907,3.907,0,0,1,0,5.519l-1.827,1.828a4.528,4.528,0,0,0-.483,5.807,41.422,41.422,0,0,0,4.639,5.524l.723-.723-.723.723A41.371,41.371,0,0,0,28.9,38.818a4.528,4.528,0,0,0,5.807-.483l1.828-1.827a3.9,3.9,0,0,1,5.519,0l4.13,4.129a3.9,3.9,0,0,1,0,5.519Z" transform="translate(0 -1.556)" fill="#f72f2f" stroke="#f72f2f" stroke-width="1"/>
  </g>
</svg>
